<mxfile host="app.diagrams.net" modified="2021-11-17T18:03:15.325Z" agent="5.0 (Windows NT 10.0; Win64; x64) AppleWebKit/537.36 (KHTML, like Gecko) Chrome/95.0.4638.69 Safari/537.36" etag="9S7cMc9Pew7K_c-V4Mqj" version="15.8.0" type="github">
  <diagram id="9LiWA-S9cQy7dodephLO" name="Page-1">
    <mxGraphModel dx="868" dy="1619" grid="1" gridSize="10" guides="1" tooltips="1" connect="1" arrows="1" fold="1" page="1" pageScale="1" pageWidth="827" pageHeight="1169" math="0" shadow="0">
      <root>
        <mxCell id="0" />
        <mxCell id="1" parent="0" />
        <mxCell id="Bl7h-G1nDcLvE9s_4pIq-4" value="" style="edgeStyle=orthogonalEdgeStyle;rounded=0;orthogonalLoop=1;jettySize=auto;html=1;" parent="1" source="Bl7h-G1nDcLvE9s_4pIq-2" target="Bl7h-G1nDcLvE9s_4pIq-3" edge="1">
          <mxGeometry relative="1" as="geometry" />
        </mxCell>
        <mxCell id="Bl7h-G1nDcLvE9s_4pIq-2" value="Reader(Bufferreader)" style="shape=process;whiteSpace=wrap;html=1;backgroundOutline=1;" parent="1" vertex="1">
          <mxGeometry x="310" y="-360" width="120" height="60" as="geometry" />
        </mxCell>
        <mxCell id="Bl7h-G1nDcLvE9s_4pIq-6" value="" style="edgeStyle=orthogonalEdgeStyle;rounded=0;orthogonalLoop=1;jettySize=auto;html=1;" parent="1" source="Bl7h-G1nDcLvE9s_4pIq-3" target="Bl7h-G1nDcLvE9s_4pIq-5" edge="1">
          <mxGeometry relative="1" as="geometry" />
        </mxCell>
        <mxCell id="Bl7h-G1nDcLvE9s_4pIq-8" value="" style="edgeStyle=orthogonalEdgeStyle;rounded=0;orthogonalLoop=1;jettySize=auto;html=1;" parent="1" source="Bl7h-G1nDcLvE9s_4pIq-3" target="Bl7h-G1nDcLvE9s_4pIq-7" edge="1">
          <mxGeometry relative="1" as="geometry" />
        </mxCell>
        <mxCell id="Bl7h-G1nDcLvE9s_4pIq-3" value="try" style="rhombus;whiteSpace=wrap;html=1;" parent="1" vertex="1">
          <mxGeometry x="230" y="-280" width="80" height="80" as="geometry" />
        </mxCell>
        <mxCell id="Bl7h-G1nDcLvE9s_4pIq-12" value="" style="edgeStyle=orthogonalEdgeStyle;rounded=0;orthogonalLoop=1;jettySize=auto;html=1;" parent="1" source="Bl7h-G1nDcLvE9s_4pIq-5" target="Bl7h-G1nDcLvE9s_4pIq-11" edge="1">
          <mxGeometry relative="1" as="geometry" />
        </mxCell>
        <mxCell id="Bl7h-G1nDcLvE9s_4pIq-5" value="new Bufferreader" style="shape=process;whiteSpace=wrap;html=1;backgroundOutline=1;" parent="1" vertex="1">
          <mxGeometry x="330" y="-270" width="120" height="60" as="geometry" />
        </mxCell>
        <mxCell id="Bl7h-G1nDcLvE9s_4pIq-10" value="" style="edgeStyle=orthogonalEdgeStyle;rounded=0;orthogonalLoop=1;jettySize=auto;html=1;" parent="1" source="Bl7h-G1nDcLvE9s_4pIq-7" edge="1">
          <mxGeometry relative="1" as="geometry">
            <mxPoint x="110" y="-160" as="targetPoint" />
          </mxGeometry>
        </mxCell>
        <mxCell id="Bl7h-G1nDcLvE9s_4pIq-7" value="catch" style="rhombus;whiteSpace=wrap;html=1;" parent="1" vertex="1">
          <mxGeometry x="70" y="-280" width="80" height="90" as="geometry" />
        </mxCell>
        <mxCell id="Bl7h-G1nDcLvE9s_4pIq-14" value="" style="edgeStyle=orthogonalEdgeStyle;rounded=0;orthogonalLoop=1;jettySize=auto;html=1;" parent="1" source="Bl7h-G1nDcLvE9s_4pIq-11" target="Bl7h-G1nDcLvE9s_4pIq-13" edge="1">
          <mxGeometry relative="1" as="geometry" />
        </mxCell>
        <mxCell id="Bl7h-G1nDcLvE9s_4pIq-11" value="arraylist&amp;lt;&amp;gt;textAsLines" style="shape=parallelogram;perimeter=parallelogramPerimeter;whiteSpace=wrap;html=1;fixedSize=1;" parent="1" vertex="1">
          <mxGeometry x="330" y="-170" width="120" height="60" as="geometry" />
        </mxCell>
        <mxCell id="Bl7h-G1nDcLvE9s_4pIq-16" value="" style="edgeStyle=orthogonalEdgeStyle;rounded=0;orthogonalLoop=1;jettySize=auto;html=1;" parent="1" source="Bl7h-G1nDcLvE9s_4pIq-13" target="Bl7h-G1nDcLvE9s_4pIq-17" edge="1">
          <mxGeometry relative="1" as="geometry">
            <mxPoint x="590" y="-30" as="targetPoint" />
          </mxGeometry>
        </mxCell>
        <mxCell id="Bl7h-G1nDcLvE9s_4pIq-13" value="while/true" style="ellipse;whiteSpace=wrap;html=1;" parent="1" vertex="1">
          <mxGeometry x="330" y="-60" width="120" height="60" as="geometry" />
        </mxCell>
        <mxCell id="Bl7h-G1nDcLvE9s_4pIq-19" value="" style="edgeStyle=orthogonalEdgeStyle;rounded=0;orthogonalLoop=1;jettySize=auto;html=1;" parent="1" source="Bl7h-G1nDcLvE9s_4pIq-17" edge="1">
          <mxGeometry relative="1" as="geometry">
            <mxPoint x="590" y="90" as="targetPoint" />
          </mxGeometry>
        </mxCell>
        <mxCell id="Bl7h-G1nDcLvE9s_4pIq-17" value="String line = null" style="shape=note;whiteSpace=wrap;html=1;backgroundOutline=1;darkOpacity=0.05;" parent="1" vertex="1">
          <mxGeometry x="550" y="-80" width="80" height="100" as="geometry" />
        </mxCell>
        <mxCell id="Bl7h-G1nDcLvE9s_4pIq-22" value="" style="edgeStyle=orthogonalEdgeStyle;rounded=0;orthogonalLoop=1;jettySize=auto;html=1;" parent="1" source="Bl7h-G1nDcLvE9s_4pIq-20" target="Bl7h-G1nDcLvE9s_4pIq-21" edge="1">
          <mxGeometry relative="1" as="geometry" />
        </mxCell>
        <mxCell id="Bl7h-G1nDcLvE9s_4pIq-24" value="" style="edgeStyle=orthogonalEdgeStyle;rounded=0;orthogonalLoop=1;jettySize=auto;html=1;" parent="1" source="Bl7h-G1nDcLvE9s_4pIq-20" edge="1">
          <mxGeometry relative="1" as="geometry">
            <mxPoint x="590" y="240" as="targetPoint" />
          </mxGeometry>
        </mxCell>
        <mxCell id="Bl7h-G1nDcLvE9s_4pIq-20" value="try" style="rhombus;whiteSpace=wrap;html=1;" parent="1" vertex="1">
          <mxGeometry x="550" y="90" width="80" height="80" as="geometry" />
        </mxCell>
        <mxCell id="Bl7h-G1nDcLvE9s_4pIq-21" value="catch" style="rhombus;whiteSpace=wrap;html=1;" parent="1" vertex="1">
          <mxGeometry x="710" y="90" width="80" height="80" as="geometry" />
        </mxCell>
        <mxCell id="Bl7h-G1nDcLvE9s_4pIq-27" value="" style="edgeStyle=orthogonalEdgeStyle;rounded=0;orthogonalLoop=1;jettySize=auto;html=1;" parent="1" source="Bl7h-G1nDcLvE9s_4pIq-25" target="Bl7h-G1nDcLvE9s_4pIq-26" edge="1">
          <mxGeometry relative="1" as="geometry" />
        </mxCell>
        <mxCell id="Bl7h-G1nDcLvE9s_4pIq-25" value="line = bufferreader.readLine()" style="shape=callout;whiteSpace=wrap;html=1;perimeter=calloutPerimeter;" parent="1" vertex="1">
          <mxGeometry x="530" y="240" width="120" height="80" as="geometry" />
        </mxCell>
        <mxCell id="Bl7h-G1nDcLvE9s_4pIq-29" value="" style="edgeStyle=orthogonalEdgeStyle;rounded=0;orthogonalLoop=1;jettySize=auto;html=1;" parent="1" source="Bl7h-G1nDcLvE9s_4pIq-26" target="Bl7h-G1nDcLvE9s_4pIq-28" edge="1">
          <mxGeometry relative="1" as="geometry" />
        </mxCell>
        <mxCell id="Bl7h-G1nDcLvE9s_4pIq-32" value="" style="edgeStyle=orthogonalEdgeStyle;rounded=0;orthogonalLoop=1;jettySize=auto;html=1;" parent="1" source="Bl7h-G1nDcLvE9s_4pIq-26" edge="1">
          <mxGeometry relative="1" as="geometry">
            <mxPoint x="390" y="420" as="targetPoint" />
          </mxGeometry>
        </mxCell>
        <mxCell id="bKk3b_fAcIO8UhJUpnsC-8" value="" style="edgeStyle=orthogonalEdgeStyle;rounded=0;orthogonalLoop=1;jettySize=auto;html=1;" parent="1" source="Bl7h-G1nDcLvE9s_4pIq-26" target="bKk3b_fAcIO8UhJUpnsC-1" edge="1">
          <mxGeometry relative="1" as="geometry" />
        </mxCell>
        <mxCell id="Bl7h-G1nDcLvE9s_4pIq-26" value="if line!=null&lt;br&gt;&lt;br&gt;esle - break" style="triangle;whiteSpace=wrap;html=1;" parent="1" vertex="1">
          <mxGeometry x="360" y="240" width="60" height="80" as="geometry" />
        </mxCell>
        <mxCell id="Bl7h-G1nDcLvE9s_4pIq-30" value="" style="edgeStyle=orthogonalEdgeStyle;rounded=0;orthogonalLoop=1;jettySize=auto;html=1;" parent="1" source="Bl7h-G1nDcLvE9s_4pIq-28" target="Bl7h-G1nDcLvE9s_4pIq-13" edge="1">
          <mxGeometry relative="1" as="geometry" />
        </mxCell>
        <mxCell id="Bl7h-G1nDcLvE9s_4pIq-28" value="textAsLines.add(line)" style="shape=parallelogram;perimeter=parallelogramPerimeter;whiteSpace=wrap;html=1;fixedSize=1;" parent="1" vertex="1">
          <mxGeometry x="330" y="90" width="120" height="60" as="geometry" />
        </mxCell>
        <mxCell id="Bl7h-G1nDcLvE9s_4pIq-35" value="" style="edgeStyle=orthogonalEdgeStyle;rounded=0;orthogonalLoop=1;jettySize=auto;html=1;startArrow=none;" parent="1" source="bKk3b_fAcIO8UhJUpnsC-3" target="Bl7h-G1nDcLvE9s_4pIq-34" edge="1">
          <mxGeometry relative="1" as="geometry" />
        </mxCell>
        <mxCell id="bKk3b_fAcIO8UhJUpnsC-6" value="" style="edgeStyle=orthogonalEdgeStyle;rounded=0;orthogonalLoop=1;jettySize=auto;html=1;" parent="1" source="Bl7h-G1nDcLvE9s_4pIq-33" target="bKk3b_fAcIO8UhJUpnsC-3" edge="1">
          <mxGeometry relative="1" as="geometry" />
        </mxCell>
        <mxCell id="Bl7h-G1nDcLvE9s_4pIq-33" value="String songAsString = getLast(textAsLines)" style="shape=note;whiteSpace=wrap;html=1;backgroundOutline=1;darkOpacity=0.05;" parent="1" vertex="1">
          <mxGeometry x="350" y="450" width="80" height="100" as="geometry" />
        </mxCell>
        <mxCell id="Bl7h-G1nDcLvE9s_4pIq-37" value="" style="edgeStyle=orthogonalEdgeStyle;rounded=0;orthogonalLoop=1;jettySize=auto;html=1;" parent="1" source="Bl7h-G1nDcLvE9s_4pIq-34" target="Bl7h-G1nDcLvE9s_4pIq-36" edge="1">
          <mxGeometry relative="1" as="geometry" />
        </mxCell>
        <mxCell id="Bl7h-G1nDcLvE9s_4pIq-34" value="String songChanged = textChanged(songAsString)" style="shape=note;whiteSpace=wrap;html=1;backgroundOutline=1;darkOpacity=0.05;" parent="1" vertex="1">
          <mxGeometry x="350" y="710" width="80" height="100" as="geometry" />
        </mxCell>
        <mxCell id="Bl7h-G1nDcLvE9s_4pIq-36" value="Print - songAsString" style="shape=cylinder3;whiteSpace=wrap;html=1;boundedLbl=1;backgroundOutline=1;size=15;" parent="1" vertex="1">
          <mxGeometry x="360" y="870" width="60" height="80" as="geometry" />
        </mxCell>
        <mxCell id="bKk3b_fAcIO8UhJUpnsC-10" value="" style="edgeStyle=orthogonalEdgeStyle;rounded=0;orthogonalLoop=1;jettySize=auto;html=1;" parent="1" source="bKk3b_fAcIO8UhJUpnsC-1" target="Bl7h-G1nDcLvE9s_4pIq-33" edge="1">
          <mxGeometry relative="1" as="geometry" />
        </mxCell>
        <mxCell id="bKk3b_fAcIO8UhJUpnsC-1" value="Method 1" style="shape=step;perimeter=stepPerimeter;whiteSpace=wrap;html=1;fixedSize=1;" parent="1" vertex="1">
          <mxGeometry x="330" y="340" width="120" height="80" as="geometry" />
        </mxCell>
        <mxCell id="bKk3b_fAcIO8UhJUpnsC-12" value="" style="edgeStyle=orthogonalEdgeStyle;rounded=0;orthogonalLoop=1;jettySize=auto;html=1;" parent="1" source="bKk3b_fAcIO8UhJUpnsC-5" target="bKk3b_fAcIO8UhJUpnsC-11" edge="1">
          <mxGeometry relative="1" as="geometry" />
        </mxCell>
        <mxCell id="bKk3b_fAcIO8UhJUpnsC-5" value="Method 1" style="shape=step;perimeter=stepPerimeter;whiteSpace=wrap;html=1;fixedSize=1;" parent="1" vertex="1">
          <mxGeometry x="40" y="870" width="120" height="80" as="geometry" />
        </mxCell>
        <mxCell id="bKk3b_fAcIO8UhJUpnsC-3" value="Method 2" style="shape=step;perimeter=stepPerimeter;whiteSpace=wrap;html=1;fixedSize=1;" parent="1" vertex="1">
          <mxGeometry x="330" y="590" width="120" height="80" as="geometry" />
        </mxCell>
        <mxCell id="bKk3b_fAcIO8UhJUpnsC-7" value="" style="edgeStyle=orthogonalEdgeStyle;rounded=0;orthogonalLoop=1;jettySize=auto;html=1;endArrow=none;" parent="1" source="Bl7h-G1nDcLvE9s_4pIq-33" target="bKk3b_fAcIO8UhJUpnsC-3" edge="1">
          <mxGeometry relative="1" as="geometry">
            <mxPoint x="390" y="550" as="sourcePoint" />
            <mxPoint x="390" y="710" as="targetPoint" />
          </mxGeometry>
        </mxCell>
        <mxCell id="bKk3b_fAcIO8UhJUpnsC-11" value="returns only the last row of an Arraylist as String" style="ellipse;shape=cloud;whiteSpace=wrap;html=1;" parent="1" vertex="1">
          <mxGeometry x="40" y="1030" width="120" height="80" as="geometry" />
        </mxCell>
        <mxCell id="bKk3b_fAcIO8UhJUpnsC-15" value="" style="edgeStyle=orthogonalEdgeStyle;rounded=0;orthogonalLoop=1;jettySize=auto;html=1;" parent="1" source="bKk3b_fAcIO8UhJUpnsC-13" target="bKk3b_fAcIO8UhJUpnsC-14" edge="1">
          <mxGeometry relative="1" as="geometry" />
        </mxCell>
        <mxCell id="bKk3b_fAcIO8UhJUpnsC-13" value="Method 2" style="shape=step;perimeter=stepPerimeter;whiteSpace=wrap;html=1;fixedSize=1;" parent="1" vertex="1">
          <mxGeometry x="570" y="870" width="120" height="80" as="geometry" />
        </mxCell>
        <mxCell id="bKk3b_fAcIO8UhJUpnsC-17" value="" style="edgeStyle=orthogonalEdgeStyle;rounded=0;orthogonalLoop=1;jettySize=auto;html=1;" parent="1" source="bKk3b_fAcIO8UhJUpnsC-14" target="bKk3b_fAcIO8UhJUpnsC-16" edge="1">
          <mxGeometry relative="1" as="geometry" />
        </mxCell>
        <mxCell id="bKk3b_fAcIO8UhJUpnsC-14" value="String textChanged = &quot;&quot;;" style="shape=note;whiteSpace=wrap;html=1;backgroundOutline=1;darkOpacity=0.05;" parent="1" vertex="1">
          <mxGeometry x="580" y="1000" width="80" height="100" as="geometry" />
        </mxCell>
        <mxCell id="bKk3b_fAcIO8UhJUpnsC-39" value="" style="edgeStyle=orthogonalEdgeStyle;rounded=0;orthogonalLoop=1;jettySize=auto;html=1;fontSize=24;" parent="1" source="bKk3b_fAcIO8UhJUpnsC-16" target="bKk3b_fAcIO8UhJUpnsC-19" edge="1">
          <mxGeometry relative="1" as="geometry" />
        </mxCell>
        <mxCell id="bKk3b_fAcIO8UhJUpnsC-16" value="String[] badwords" style="whiteSpace=wrap;html=1;" parent="1" vertex="1">
          <mxGeometry x="560" y="1200" width="120" height="60" as="geometry" />
        </mxCell>
        <mxCell id="bKk3b_fAcIO8UhJUpnsC-21" value="" style="edgeStyle=orthogonalEdgeStyle;rounded=0;orthogonalLoop=1;jettySize=auto;html=1;" parent="1" source="bKk3b_fAcIO8UhJUpnsC-19" target="bKk3b_fAcIO8UhJUpnsC-20" edge="1">
          <mxGeometry relative="1" as="geometry" />
        </mxCell>
        <mxCell id="bKk3b_fAcIO8UhJUpnsC-42" value="" style="edgeStyle=orthogonalEdgeStyle;rounded=0;orthogonalLoop=1;jettySize=auto;html=1;fontSize=12;" parent="1" source="bKk3b_fAcIO8UhJUpnsC-19" target="bKk3b_fAcIO8UhJUpnsC-41" edge="1">
          <mxGeometry relative="1" as="geometry" />
        </mxCell>
        <mxCell id="bKk3b_fAcIO8UhJUpnsC-19" value="fori&lt;br&gt;i&amp;lt;badwords.lenght" style="ellipse;whiteSpace=wrap;html=1;aspect=fixed;" parent="1" vertex="1">
          <mxGeometry x="595" y="1280" width="50" height="50" as="geometry" />
        </mxCell>
        <mxCell id="bKk3b_fAcIO8UhJUpnsC-20" value="If textChange = &quot;&quot;;&lt;br&gt;&lt;br&gt;else" style="triangle;whiteSpace=wrap;html=1;" parent="1" vertex="1">
          <mxGeometry x="460" y="1270" width="60" height="80" as="geometry" />
        </mxCell>
        <mxCell id="bKk3b_fAcIO8UhJUpnsC-26" value="" style="edgeStyle=orthogonalEdgeStyle;rounded=0;orthogonalLoop=1;jettySize=auto;html=1;" parent="1" source="bKk3b_fAcIO8UhJUpnsC-22" target="bKk3b_fAcIO8UhJUpnsC-25" edge="1">
          <mxGeometry relative="1" as="geometry" />
        </mxCell>
        <mxCell id="bKk3b_fAcIO8UhJUpnsC-22" value="textChanged = text.replaceAll badwords[i]" style="shape=callout;whiteSpace=wrap;html=1;perimeter=calloutPerimeter;" parent="1" vertex="1">
          <mxGeometry x="240" y="1230" width="120" height="80" as="geometry" />
        </mxCell>
        <mxCell id="bKk3b_fAcIO8UhJUpnsC-23" value="" style="endArrow=classic;html=1;rounded=0;entryX=0;entryY=0;entryDx=120;entryDy=25;entryPerimeter=0;exitX=0.033;exitY=0;exitDx=0;exitDy=0;exitPerimeter=0;" parent="1" source="bKk3b_fAcIO8UhJUpnsC-20" target="bKk3b_fAcIO8UhJUpnsC-22" edge="1">
          <mxGeometry width="50" height="50" relative="1" as="geometry">
            <mxPoint x="390" y="1370" as="sourcePoint" />
            <mxPoint x="440" y="1320" as="targetPoint" />
          </mxGeometry>
        </mxCell>
        <mxCell id="bKk3b_fAcIO8UhJUpnsC-34" value="" style="edgeStyle=orthogonalEdgeStyle;rounded=0;orthogonalLoop=1;jettySize=auto;html=1;fontSize=24;" parent="1" source="bKk3b_fAcIO8UhJUpnsC-24" target="bKk3b_fAcIO8UhJUpnsC-33" edge="1">
          <mxGeometry relative="1" as="geometry" />
        </mxCell>
        <mxCell id="bKk3b_fAcIO8UhJUpnsC-24" value="textChanged = textChanged.replaceAll badwords [i]" style="shape=callout;whiteSpace=wrap;html=1;perimeter=calloutPerimeter;" parent="1" vertex="1">
          <mxGeometry x="240" y="1340" width="120" height="80" as="geometry" />
        </mxCell>
        <mxCell id="bKk3b_fAcIO8UhJUpnsC-28" value="" style="edgeStyle=orthogonalEdgeStyle;rounded=0;orthogonalLoop=1;jettySize=auto;html=1;" parent="1" source="bKk3b_fAcIO8UhJUpnsC-25" target="bKk3b_fAcIO8UhJUpnsC-27" edge="1">
          <mxGeometry relative="1" as="geometry" />
        </mxCell>
        <mxCell id="bKk3b_fAcIO8UhJUpnsC-25" value="" style="shape=waypoint;size=6;pointerEvents=1;points=[];fillColor=rgba(255, 255, 255, 1);resizable=0;rotatable=0;perimeter=centerPerimeter;snapToPoint=1;" parent="1" vertex="1">
          <mxGeometry x="280" y="1169" width="40" height="40" as="geometry" />
        </mxCell>
        <mxCell id="bKk3b_fAcIO8UhJUpnsC-30" value="" style="edgeStyle=orthogonalEdgeStyle;rounded=0;orthogonalLoop=1;jettySize=auto;html=1;" parent="1" source="bKk3b_fAcIO8UhJUpnsC-27" edge="1">
          <mxGeometry relative="1" as="geometry">
            <mxPoint x="420" y="1189" as="targetPoint" />
          </mxGeometry>
        </mxCell>
        <mxCell id="bKk3b_fAcIO8UhJUpnsC-27" value="" style="shape=waypoint;size=6;pointerEvents=1;points=[];fillColor=rgba(255, 255, 255, 1);resizable=0;rotatable=0;perimeter=centerPerimeter;snapToPoint=1;" parent="1" vertex="1">
          <mxGeometry x="400" y="1169" width="40" height="40" as="geometry" />
        </mxCell>
        <mxCell id="bKk3b_fAcIO8UhJUpnsC-31" value="" style="endArrow=classic;html=1;rounded=0;entryX=0;entryY=0;entryDx=0;entryDy=0;" parent="1" source="bKk3b_fAcIO8UhJUpnsC-27" target="bKk3b_fAcIO8UhJUpnsC-19" edge="1">
          <mxGeometry width="50" height="50" relative="1" as="geometry">
            <mxPoint x="390" y="1350" as="sourcePoint" />
            <mxPoint x="440" y="1300" as="targetPoint" />
          </mxGeometry>
        </mxCell>
        <mxCell id="bKk3b_fAcIO8UhJUpnsC-32" value="&lt;font style=&quot;font-size: 24px&quot;&gt;i++&lt;/font&gt;" style="text;html=1;align=center;verticalAlign=middle;resizable=0;points=[];autosize=1;strokeColor=none;fillColor=none;" parent="1" vertex="1">
          <mxGeometry x="335" y="1170" width="50" height="20" as="geometry" />
        </mxCell>
        <mxCell id="bKk3b_fAcIO8UhJUpnsC-36" value="" style="edgeStyle=orthogonalEdgeStyle;rounded=0;orthogonalLoop=1;jettySize=auto;html=1;fontSize=24;" parent="1" source="bKk3b_fAcIO8UhJUpnsC-33" target="bKk3b_fAcIO8UhJUpnsC-35" edge="1">
          <mxGeometry relative="1" as="geometry" />
        </mxCell>
        <mxCell id="bKk3b_fAcIO8UhJUpnsC-33" value="" style="shape=waypoint;size=6;pointerEvents=1;points=[];fillColor=rgba(255, 255, 255, 1);resizable=0;rotatable=0;perimeter=centerPerimeter;snapToPoint=1;" parent="1" vertex="1">
          <mxGeometry x="280" y="1430" width="40" height="40" as="geometry" />
        </mxCell>
        <mxCell id="bKk3b_fAcIO8UhJUpnsC-35" value="" style="shape=waypoint;size=6;pointerEvents=1;points=[];fillColor=rgba(255, 255, 255, 1);resizable=0;rotatable=0;perimeter=centerPerimeter;snapToPoint=1;" parent="1" vertex="1">
          <mxGeometry x="400" y="1430" width="40" height="40" as="geometry" />
        </mxCell>
        <mxCell id="bKk3b_fAcIO8UhJUpnsC-37" value="" style="endArrow=classic;html=1;rounded=0;fontSize=24;entryX=0;entryY=1;entryDx=0;entryDy=0;exitX=0.575;exitY=0.425;exitDx=0;exitDy=0;exitPerimeter=0;" parent="1" source="bKk3b_fAcIO8UhJUpnsC-35" target="bKk3b_fAcIO8UhJUpnsC-19" edge="1">
          <mxGeometry width="50" height="50" relative="1" as="geometry">
            <mxPoint x="390" y="1350" as="sourcePoint" />
            <mxPoint x="440" y="1300" as="targetPoint" />
          </mxGeometry>
        </mxCell>
        <mxCell id="bKk3b_fAcIO8UhJUpnsC-38" value="i++" style="text;html=1;align=center;verticalAlign=middle;resizable=0;points=[];autosize=1;strokeColor=none;fillColor=none;fontSize=24;" parent="1" vertex="1">
          <mxGeometry x="335" y="1455" width="50" height="30" as="geometry" />
        </mxCell>
        <mxCell id="bKk3b_fAcIO8UhJUpnsC-41" value="return textChanged" style="shape=card;whiteSpace=wrap;html=1;fontSize=12;" parent="1" vertex="1">
          <mxGeometry x="580" y="1390" width="80" height="100" as="geometry" />
        </mxCell>
      </root>
    </mxGraphModel>
  </diagram>
</mxfile>
